<?xml version="1.0" encoding="UTF-8"?>
<svg id="Layer_2" data-name="Layer 2" xmlns="http://www.w3.org/2000/svg" viewBox="0 0 861.46 999.69">
  <defs>
    <style>
      .cls-1 {
        fill: gold;
      }
    </style>
  </defs>
  <g id="Layer_1-2" data-name="Layer 1">
    <g>
      <path class="cls-1" d="m134.9.46l54.03,31.19,53.31,576.96L54.47,933.85.34,902.6l187.81-325.31.04-.07v-.08S134.9.46,134.9.46m-.29-.46l53.33,577.17L0,902.69l54.56,31.5,187.94-325.52L189.17,31.5,134.61,0h0Z"/>
      <path class="cls-1" d="m676.63,313.23l54.05,31.2-368.38,192.4-4.85-56.9,319.18-166.7m0-.29l-319.45,166.84,4.89,57.44,369.11-192.78-54.56-31.5h0Z"/>
      <path class="cls-1" d="m189.46,31.96l136.02,78.53,31.46,369.31,4.89,57.44.03.37.33-.17,368.99-192.72,129.74,74.9-503.97,252.37-.07.03-.04.07-188.94,327.25-113.02-65.25,187.81-325.31.04-.07v-.08S189.46,31.96,189.46,31.96m-.29-.46l53.33,577.17L54.56,934.19l113.45,65.5,189.06-327.47,504.38-252.58-130.26-75.21-369.11,192.78-4.89-57.44-31.47-369.44L189.17,31.5h0Z"/>
    </g>
  </g>
</svg>